<svg xmlns="http://www.w3.org/2000/svg" xmlns:xlink="http://www.w3.org/1999/xlink" style="position:absolute; left: -9999px; top: -9999px;">
    <symbol id="more" viewBox="0 0 24 24">
        <path d="M12 10C10.9 10 10 10.9 10 12C10 13.1 10.9 14 12 14C13.1 14 14 13.1 14 12C14 10.9 13.1 10 12 10ZM18 10C16.9 10 16 10.9 16 12C16 13.1 16.9 14 18 14C19.1 14 20 13.1 20 12C20 10.9 19.1 10 18 10ZM6 10C4.9 10 4 10.9 4 12C4 13.1 4.9 14 6 14C7.1 14 8 13.1 8 12C8 10.9 7.1 10 6 10Z" />
    </symbol>
    <symbol id="folder" viewBox="0 0 18 18">
        <path d="M1.7998 5.39961C1.7998 4.4055 2.60569 3.59961 3.5998 3.59961H8.0998L9.8998 5.39961H14.3998C15.3939 5.39961 16.1998 6.2055 16.1998 7.19961V12.5996C16.1998 13.5937 15.3939 14.3996 14.3998 14.3996H3.5998C2.60569 14.3996 1.7998 13.5937 1.7998 12.5996V5.39961Z"/>
    </symbol>
    <symbol id="arrow-down" viewBox="0 0 16 16">
        <path d="M4 6L8 10L12 6" stroke-width="2" stroke-linecap="round" stroke-linejoin="round"/>
    </symbol>
    <symbol id="page" viewBox="0 0 18 18">
        <path fill-rule="evenodd" clip-rule="evenodd" d="M3.59961 3.5998C3.59961 2.60569 4.4055 1.7998 5.39961 1.7998H9.52683C10.0042 1.7998 10.462 1.98944 10.7996 2.32702L13.8724 5.3998C14.21 5.73737 14.3996 6.19521 14.3996 6.67259V14.3998C14.3996 15.3939 13.5937 16.1998 12.5996 16.1998H5.39961C4.4055 16.1998 3.59961 15.3939 3.59961 14.3998V3.5998Z" />
    </symbol>
    <symbol id="edit" viewBox="0 0 20 20">
        <path d="M15.8708 6.16751C16.1858 5.85251 16.3591 5.43417 16.3591 4.98917C16.3591 4.54417 16.1858 4.12584 15.8708 3.81084L14.5491 2.48917C14.2341 2.17417 13.8158 2.00084 13.3708 2.00084C12.9258 2.00084 12.5075 2.17417 12.1933 2.48834L3.33331 11.3208V15H7.01081L15.8708 6.16751ZM13.3708 3.66751L14.6933 4.98834L13.3683 6.30834L12.0466 4.98751L13.3708 3.66751ZM4.99998 13.3333V12.0125L10.8666 6.16417L12.1883 7.48584L6.32248 13.3333H4.99998ZM3.33331 16.6667H16.6666V18.3333H3.33331V16.6667Z" />
    </symbol>
    <symbol id="trash" viewBox="0 0 20 20">
        <path d="M12.5 1.66699H7.5C6.58083 1.66699 5.83333 2.41449 5.83333 3.33366V5.00033H2.5V6.66699H4.16667V16.667C4.16667 17.5862 4.91417 18.3337 5.83333 18.3337H14.1667C15.0858 18.3337 15.8333 17.5862 15.8333 16.667V6.66699H17.5V5.00033H14.1667V3.33366C14.1667 2.41449 13.4192 1.66699 12.5 1.66699ZM7.5 3.33366H12.5V5.00033H7.5V3.33366ZM14.1667 16.667H5.83333V6.66699H14.1667V16.667Z" />
    </symbol>
</svg>